<svg xmlns="http://www.w3.org/2000/svg" viewBox="0 0 912 237" xmlns:ed="https://www.edrawsoft.cn/xml/2017/SVGExtensions/" height="237" xmlns:ev="http://www.w3.org/2001/xml-events" ed:name="页面-1" ed:vSpacing="20" ed:hSpacing="30" xmlns:xlink="http://www.w3.org/1999/xlink" width="912" id="page100"><style type="text/css"><![CDATA[
g[ed\:togtopicid],g[ed\:hyperlink],g[ed\:comment],g[ed\:note] {cursor:pointer;}
g[id] {-moz-user-select: none;-ms-user-select: none;user-select: none;}
svg text::selection,svg tspan::selection{background-color: #4285f4;color: #ffffff;fill: #ffffff;}
.st1 {fill:#454545;font-family:;font-size:14pt}
.st3 {fill:#454545;font-family:微软雅黑;font-size:11pt}
.st4 {fill:#454545;font-family:微软雅黑;font-size:9pt}
.st2 {font-family:Sans Serif}
]]></style><defs/><rect y="0" fill="#ffffff" height="237" x="0" width="912"/><path ed:parentid="101" fill="#ff7575" stroke-linecap="round" transform="matrix(1,0,0,1,290.66,84.13)" ed:tosuperid="262" stroke-linejoin="round" d="M-3.5,1.1C-5.1,1.9,-5.7,3.5,-5.1,4.7C-4.5,5.9,-2.9,6.4,-1.3,5.6C0.8,4.5,2.9,3.5,4.9,2.4C7,1.3,9.1,0.3,11.2,-0.8C13.2,-1.9,15.3,-3,17.4,-4C19.4,-5.1,21.5,-6.2,23.6,-7.2C25.7,-8.2,27.8,-9.3,29.9,-10.3C31.9,-11.3,34,-12.3,36.1,-13.3C38.3,-14.3,40.4,-15.2,42.5,-16.1C44.6,-17.1,46.8,-18,48.9,-18.8C51.1,-19.7,53.2,-20.5,55.4,-21.3C57.6,-22.1,59.8,-22.9,62,-23.6C64.2,-24.3,66.4,-25,68.6,-25.7C70.8,-26.3,73.1,-26.9,75.3,-27.4C77.6,-28,79.8,-28.5,82.1,-28.9C84.4,-29.4,86.7,-29.8,89,-30.1C91.3,-30.5,93.6,-30.8,95.9,-31C98.2,-31.3,100.5,-31.5,102.8,-31.6C105.2,-31.7,107.5,-31.8,109.9,-31.9C110.2,-31.9,110.5,-32.1,110.5,-32.4C110.5,-32.6,110.2,-32.9,109.9,-32.9C107.5,-32.9,105.1,-32.9,102.8,-32.8C100.4,-32.8,98.1,-32.7,95.8,-32.5C93.4,-32.3,91.1,-32.1,88.7,-31.8C86.4,-31.6,84.1,-31.2,81.8,-30.8C79.5,-30.5,77.1,-30,74.8,-29.6C72.5,-29.1,70.3,-28.6,68,-28C65.7,-27.4,63.4,-26.8,61.2,-26.2C58.9,-25.5,56.7,-24.8,54.4,-24.1C52.2,-23.3,50,-22.5,47.8,-21.7C45.6,-20.9,43.4,-20.1,41.2,-19.2C39,-18.4,36.9,-17.5,34.7,-16.6C32.5,-15.6,30.4,-14.7,28.2,-13.8C26.1,-12.8,24,-11.8,21.8,-10.9C19.7,-9.9,17.6,-8.9,15.5,-7.9C13.4,-6.9,11.3,-5.9,9.1,-4.9C7,-3.9,4.9,-2.9,2.8,-1.9C0.7,-0.9,-1.4,0.1,-3.5,1.1z" stroke="#ff7575" id="263"/><path ed:parentid="101" fill="#5fb7f1" stroke-linecap="round" transform="matrix(1,0,0,1,290.66,111)" ed:tosuperid="264" stroke-linejoin="round" d="M45.5,-5.3C43.7,-5.3,42.6,-4,42.7,-2.6C42.8,-1.2,44.1,-0.2,45.8,-0.3C48.2,-0.6,50.5,-0.8,52.8,-1C55.1,-1.3,57.4,-1.5,59.8,-1.7C62.1,-1.9,64.4,-2.1,66.7,-2.3C69.1,-2.5,71.4,-2.7,73.7,-2.9C76,-3.1,78.4,-3.3,80.7,-3.4C83,-3.6,85.3,-3.8,87.6,-3.9C90,-4.1,92.4,-4.2,94.6,-4.3C96.9,-4.5,99,-4.6,101.6,-4.7C104.2,-4.8,107.2,-4.9,108.6,-5C110.1,-5,110,-5,109.9,-5C109.5,-5,110.5,-5.2,110.5,-5.5C110.5,-5.8,109.5,-6,109.9,-6C110,-6,110.1,-6,108.6,-6C107.2,-6.1,104.2,-6.2,101.6,-6.2C99,-6.3,96.9,-6.3,94.6,-6.3C92.3,-6.3,89.9,-6.3,87.6,-6.3C85.2,-6.3,82.9,-6.3,80.6,-6.3C78.2,-6.2,75.9,-6.2,73.5,-6.2C71.2,-6.1,68.9,-6.1,66.5,-6C64.2,-6,61.9,-5.9,59.5,-5.8C57.2,-5.7,54.8,-5.7,52.5,-5.6C50.2,-5.5,47.8,-5.4,45.5,-5.3z" stroke="#5fb7f1" id="265"/><path ed:parentid="101" fill="#ffcd55" stroke-linecap="round" transform="matrix(1,0,0,1,290.66,137.88)" ed:tosuperid="266" stroke-linejoin="round" d="M26.8,4.1C25.1,3.5,23.7,4.2,23.2,5.6C22.8,6.9,23.6,8.3,25.4,8.8C27.6,9.5,29.9,10.1,32.1,10.7C34.4,11.3,36.7,11.9,38.9,12.5C41.2,13.1,43.5,13.7,45.8,14.2C48,14.8,50.3,15.3,52.6,15.8C54.9,16.3,57.2,16.8,59.5,17.3C61.8,17.7,64.1,18.1,66.4,18.5C68.8,18.9,71.1,19.3,73.4,19.6C75.7,20,78.1,20.3,80.4,20.5C82.7,20.8,85,21,87.4,21.2C89.7,21.4,92.1,21.6,94.4,21.7C96.7,21.8,98.8,21.9,101.4,21.9C104,21.9,107,21.9,108.4,21.9C109.9,21.9,109.9,21.9,109.9,21.9C109.6,21.7,110.5,21.6,110.5,21.4C110.5,21.1,109.6,20.7,109.9,20.9C109.9,20.9,109.9,20.9,108.4,20.8C107,20.8,104,20.7,101.5,20.5C98.9,20.4,96.8,20.2,94.5,20C92.3,19.7,89.9,19.5,87.6,19.2C85.3,18.9,83,18.5,80.7,18.2C78.4,17.8,76.1,17.4,73.8,17C71.6,16.5,69.3,16.1,67,15.6C64.8,15.1,62.5,14.5,60.2,14C58,13.4,55.7,12.8,53.5,12.2C51.3,11.6,49,11,46.8,10.3C44.6,9.7,42.3,9,40.1,8.3C37.9,7.7,35.7,7,33.5,6.2C31.3,5.5,29.1,4.8,26.8,4.1z" stroke="#ffcd55" id="267"/><path ed:parentid="101" fill="#f1a3dc" stroke-linecap="round" transform="matrix(1,0,0,1,290.66,164.75)" ed:tosuperid="268" stroke-linejoin="round" d="M-21.9,-21.3C-23.4,-22.4,-25,-22.1,-25.8,-20.9C-26.6,-19.8,-26.2,-18.2,-24.7,-17.2C-22.8,-15.9,-20.9,-14.6,-19,-13.3C-17.1,-12,-15.2,-10.6,-13.3,-9.2C-11.4,-7.9,-9.6,-6.5,-7.7,-5.1C-5.8,-3.7,-4,-2.3,-2.1,-0.9C-0.2,0.5,1.6,1.9,3.5,3.3C5.3,4.7,7.2,6.1,9.1,7.5C10.9,8.9,12.8,10.3,14.7,11.7C16.6,13.1,18.5,14.5,20.4,15.8C22.3,17.2,24.2,18.6,26.1,19.9C28.1,21.2,30,22.5,32,23.8C33.9,25.1,35.9,26.4,37.9,27.6C39.9,28.8,42,30,44,31.2C46.1,32.3,48.1,33.4,50.2,34.5C52.3,35.5,54.5,36.6,56.6,37.5C58.7,38.5,60.9,39.4,63.1,40.3C65.3,41.1,67.5,41.9,69.7,42.7C72,43.4,74.2,44.1,76.5,44.7C78.8,45.3,81.1,45.8,83.4,46.3C85.7,46.8,88,47.2,90.3,47.5C92.6,47.8,94.9,48.1,97.3,48.3C99.7,48.5,102.2,48.6,104.3,48.7C106.4,48.8,108.2,48.8,109.9,48.8C110.2,48.7,110.5,48.5,110.5,48.3C110.5,48,110.2,47.8,109.9,47.8C108.2,47.7,106.5,47.7,104.4,47.6C102.3,47.4,99.8,47.2,97.4,47C95.1,46.7,92.8,46.4,90.6,46C88.3,45.6,86,45.2,83.7,44.6C81.5,44.1,79.2,43.5,77,42.9C74.8,42.2,72.6,41.5,70.4,40.7C68.2,39.9,66.1,39.1,63.9,38.2C61.8,37.3,59.7,36.3,57.6,35.3C55.5,34.3,53.5,33.3,51.4,32.2C49.4,31.1,47.4,29.9,45.4,28.7C43.4,27.5,41.5,26.3,39.5,25.1C37.6,23.8,35.6,22.5,33.7,21.2C31.8,19.9,29.9,18.5,28.1,17.2C26.2,15.8,24.3,14.4,22.5,13C20.6,11.6,18.8,10.2,16.9,8.8C15.1,7.3,13.3,5.9,11.5,4.4C9.6,3,7.8,1.5,6,0.1C4.2,-1.4,2.3,-2.9,0.5,-4.3C-1.3,-5.8,-3.1,-7.2,-5,-8.7C-6.8,-10.1,-8.7,-11.5,-10.5,-13C-12.4,-14.4,-14.3,-15.8,-16.2,-17.2C-18.1,-18.6,-20,-19.9,-21.9,-21.3z" stroke="#f1a3dc" id="270"/><path ed:parentid="268" stroke-width="2" fill="none" stroke-linecap="round" transform="matrix(1,0,0,1,510.05,210)" ed:tosuperid="271" stroke-linejoin="round" d="M-13.5,3C-2,3,3.8,-3,13.5,-3" stroke="#f1a3dc" id="272"/><g transform="matrix(1,0,0,1,24,87.5)" ed:width="313.55125" ed:layout="map" ed:topictype="mainidea" ed:height="58" id="101"><path stroke-width="4" fill="#ffffff" stroke-linejoin="round" d="M29,0L284.6,0C300.6,0,313.6,13,313.6,29C313.6,45,300.6,58,284.6,58L29,58C13,58,0,45,0,29C0,13,13,0,29,0z" stroke="#ffffff"/><text class="st1"><tspan style="white-space:pre" y="35.6" x="25" class="st2">bufferevent filter zlib压缩通信</tspan></text></g><g ed:parentid="101" transform="matrix(1,0,0,1,400.55,20)" ed:width="137.65625" ed:layout="rightmap" ed:height="31.75" id="262"><path stroke-width="2" fill="none" stroke-linejoin="round" d="M0,31.8L137.7,31.8" stroke="#ff7575"/><text class="st3"><tspan style="white-space:pre" y="20.3" x="17">evbuffer_peek</tspan></text></g><g ed:parentid="101" transform="matrix(1,0,0,1,400.55,73.75)" ed:width="208.328125" ed:layout="rightmap" ed:height="31.75" id="264"><path stroke-width="2" fill="none" stroke-linejoin="round" d="M0,31.8L208.3,31.8" stroke="#5fb7f1"/><text class="st3"><tspan style="white-space:pre" y="20.3" x="17">evbuffer_reserver_space</tspan></text></g><g ed:parentid="101" transform="matrix(1,0,0,1,400.55,127.5)" ed:width="138.9375" ed:layout="rightmap" ed:height="31.75" id="266"><path stroke-width="2" fill="none" stroke-linejoin="round" d="M0,31.8L138.9,31.8" stroke="#ffcd55"/><text class="st3"><tspan style="white-space:pre" y="20.3" x="17">evbuffer_drain</tspan></text></g><g ed:parentid="101" transform="matrix(1,0,0,1,400.55,181.25)" ed:width="96" ed:layout="rightmap" ed:height="31.75" id="268"><path stroke-width="2" fill="none" stroke-linejoin="round" d="M0,31.8L96,31.8" stroke="#f1a3dc"/><text class="st3"><tspan style="white-space:pre" y="20.3" x="17">代码示例</tspan></text></g><g ed:parentid="268" transform="matrix(1,0,0,1,523.55,187.25)" ed:width="366" ed:layout="rightmap" ed:height="19.75" id="271"><path stroke-width="2" fill="none" stroke-linejoin="round" d="M0,19.8L366,19.8" stroke="#f1a3dc"/><text class="st4"><tspan style="white-space:pre" y="12.6" x="8">客户端在输出过滤压缩发送数据，服务端在输入过滤中解压病统计</tspan></text></g></svg>