<svg xmlns:ed="https://www.edrawsoft.cn/xml/2017/SVGExtensions/" height="321" viewBox="0 0 851 321" ed:vSpacing="30" ed:hSpacing="30" xmlns="http://www.w3.org/2000/svg" xmlns:ev="http://www.w3.org/2001/xml-events" xmlns:xlink="http://www.w3.org/1999/xlink" width="851" id="page100" ed:name="页面-1"><style type="text/css"><![CDATA[
g[ed\:togtopicid],g[ed\:hyperlink],g[ed\:comment],g[ed\:note] {cursor:pointer;}
g[id] {-moz-user-select: none;-ms-user-select: none;user-select: none;}
svg text::selection,svg tspan::selection{background-color: #4285f4;color: #ffffff;fill: #ffffff;}
.st3 {fill:#454545;font-family:宋体;font-size:10pt}
.st2 {fill:#454545;font-family:宋体;font-size:12pt}
.st1 {fill:#454545;font-family:宋体;font-size:14pt}
]]></style><defs/><rect fill="#ffffff" y="0" height="321" width="851" x="0"/><path d="M-31.5,60.6C-32.6,60.6,-33.3,61.3,-33.3,62.1C-33.3,63,-32.6,63.7,-31.5,63.6L-2.2,62.1L-3.2,-61.8L31.5,-62.1L-3.2,-62.4L-4.8,62.1L-31.5,60.6z" fill="#e0a7d3" stroke="#e0a7d3" stroke-linecap="round" stroke-linejoin="round" id="103" ed:parentid="101" ed:tosuperid="102" transform="matrix(1,0,0,1,255.69,121.38)"/><path d="M-31.5,0.1C-32.6,0.1,-33.3,0.8,-33.3,1.6C-33.3,2.5,-32.6,3.2,-31.5,3.1L-2.6,1.6L-3.2,-0.8L31.5,-1.6L-3.2,-2.4L-4.4,1.6L-31.5,0.1z" fill="#70bdf2" stroke="#70bdf2" stroke-linecap="round" stroke-linejoin="round" id="105" ed:parentid="101" ed:tosuperid="104" transform="matrix(1,0,0,1,255.69,181.88)"/><path d="M-31.5,-56.8C-32.6,-56.8,-33.3,-56.1,-33.3,-55.3C-33.3,-54.4,-32.6,-53.7,-31.5,-53.8L-4.8,-55.3L-3,55.6L31.5,55.3L-3,54.9L-2.2,-55.3L-31.5,-56.8z" fill="#e38d76" stroke="#e38d76" stroke-linecap="round" stroke-linejoin="round" id="107" ed:parentid="101" ed:tosuperid="106" transform="matrix(1,0,0,1,255.69,238.75)"/><path d="M-13.5,9.9C-0.4,9.9,0,-9.9,13.5,-9.9" fill="none" stroke="#e0a7d3" stroke-linecap="round" stroke-linejoin="round" id="111" ed:parentid="102" ed:tosuperid="110" transform="matrix(1,0,0,1,402.05,49.38)"/><path d="M-13.5,-3.6C-1.8,-3.6,3.4,3.6,13.5,3.6" fill="none" stroke="#e0a7d3" stroke-linecap="round" stroke-linejoin="round" id="117" ed:parentid="102" ed:tosuperid="116" transform="matrix(1,0,0,1,402.05,62.88)"/><path d="M-13.5,30.1C3.5,30.1,-9.1,-30.1,13.5,-30.1" fill="none" stroke="#70bdf2" stroke-linecap="round" stroke-linejoin="round" id="119" ed:parentid="104" ed:tosuperid="118" transform="matrix(1,0,0,1,513.64,150.13)"/><path d="M-13.5,16.6C1.1,16.6,-3.4,-16.6,13.5,-16.6" fill="none" stroke="#70bdf2" stroke-linecap="round" stroke-linejoin="round" id="121" ed:parentid="104" ed:tosuperid="120" transform="matrix(1,0,0,1,513.64,163.63)"/><path d="M-13.5,3.1C-2,3.1,3.7,-3.1,13.5,-3.1" fill="none" stroke="#70bdf2" stroke-linecap="round" stroke-linejoin="round" id="123" ed:parentid="104" ed:tosuperid="122" transform="matrix(1,0,0,1,513.64,177.13)"/><path d="M-13.5,-10.4C-0.3,-10.4,-0.2,10.4,13.5,10.4" fill="none" stroke="#70bdf2" stroke-linecap="round" stroke-linejoin="round" id="125" ed:parentid="104" ed:tosuperid="124" transform="matrix(1,0,0,1,513.64,190.63)"/><path d="M-13.5,0C-2.7,0,5.4,0,13.5,0" fill="none" stroke="#70bdf2" stroke-linecap="round" stroke-linejoin="round" id="127" ed:parentid="124" ed:tosuperid="126" transform="matrix(1,0,0,1,626.19,201)"/><path d="M-13.5,-23.9C2.5,-23.9,-6.7,23.9,13.5,23.9" fill="none" stroke="#70bdf2" stroke-linecap="round" stroke-linejoin="round" id="129" ed:parentid="104" ed:tosuperid="128" transform="matrix(1,0,0,1,513.64,204.13)"/><g ed:height="54" id="101" ed:layout="map" transform="matrix(1,0,0,1,23,129.5)" ed:topictype="mainidea" ed:width="201.1875"><path d="M0,0L201.2,0L201.2,54L0,54L0,0z" fill="#d0e8e9"/><path d="M0,54L201.2,54" stroke-width="3" fill="none" stroke="#50bec1" stroke-linejoin="round"/><text class="st1"><tspan style="white-space:pre" y="32.5" x="19">bufferevent_filter</tspan></text></g><g ed:height="33" id="102" ed:layout="rightmap" ed:parentid="101" transform="matrix(1,0,0,1,287.19,26.25)" ed:width="101.359375"><path d="M0,0L101.4,0L101.4,33L0,33L0,0z" fill="#f3e1ef"/><path d="M0,33L101.4,33" stroke-width="3" fill="none" stroke="#e0a7d3" stroke-linejoin="round"/><text class="st2"><tspan style="white-space:pre" y="21" x="17">evbuffer</tspan></text></g><g ed:height="33" id="104" ed:layout="rightmap" ed:parentid="101" transform="matrix(1,0,0,1,287.19,147.25)" ed:width="212.953125"><path d="M0,0L213,0L213,33L0,33L0,0z" fill="#d5e8fa"/><path d="M0,33L213,33" stroke-width="3" fill="none" stroke="#70bdf2" stroke-linejoin="round"/><text class="st2"><tspan style="white-space:pre" y="21" x="17">bufferevent_filter_new</tspan></text></g><g ed:height="33" id="106" ed:layout="rightmap" ed:parentid="101" transform="matrix(1,0,0,1,287.19,261)" ed:width="268.21875"><path d="M0,0L268.2,0L268.2,33L0,33L0,0z" fill="#f4dbd6"/><path d="M0,33L268.2,33" stroke-width="3" fill="none" stroke="#e38d76" stroke-linejoin="round"/><text class="st2"><tspan style="white-space:pre" y="21" x="17">bufferevent_filter zlib压缩通信</tspan></text></g><g ed:height="20.5" id="110" ed:layout="rightmap" ed:parentid="102" transform="matrix(1,0,0,1,415.55,19)" ed:width="123.734375"><path d="M0,20.5L123.7,20.5" fill="none" stroke="#e0a7d3" stroke-linejoin="round"/><text class="st3"><tspan style="white-space:pre" y="13.8" x="8">evbuffer_remove</tspan></text></g><g ed:height="20.5" id="116" ed:layout="rightmap" ed:parentid="102" transform="matrix(1,0,0,1,415.55,46)" ed:width="99.53125"><path d="M0,20.5L99.5,20.5" fill="none" stroke="#e0a7d3" stroke-linejoin="round"/><text class="st3"><tspan style="white-space:pre" y="13.8" x="8">evbuffer_add</tspan></text></g><g ed:height="20.5" id="118" ed:layout="rightmap" ed:parentid="104" transform="matrix(1,0,0,1,527.14,99.5)" ed:width="160.859375"><path d="M0,20.5L160.9,20.5" fill="none" stroke="#70bdf2" stroke-linejoin="round"/><text class="st3"><tspan style="white-space:pre" y="13.8" x="8">bufferevent_filter_new</tspan></text></g><g ed:height="20.5" id="120" ed:layout="rightmap" ed:parentid="104" transform="matrix(1,0,0,1,527.14,126.5)" ed:width="223.515625"><path d="M0,20.5L223.5,20.5" fill="none" stroke="#70bdf2" stroke-linejoin="round"/><text class="st3"><tspan style="white-space:pre" y="13.8" x="8">bufferevent_filter_cb input_filter</tspan></text></g><g ed:height="20.5" id="122" ed:layout="rightmap" ed:parentid="104" transform="matrix(1,0,0,1,527.14,153.5)" ed:width="234.796875"><path d="M0,20.5L234.8,20.5" fill="none" stroke="#70bdf2" stroke-linejoin="round"/><text class="st3"><tspan style="white-space:pre" y="13.8" x="8">bufferevent_filter_cb  output_filter</tspan></text></g><g ed:height="20.5" id="124" ed:layout="rightmap" ed:parentid="104" transform="matrix(1,0,0,1,527.14,180.5)" ed:width="85.546875"><path d="M0,20.5L85.5,20.5" fill="none" stroke="#70bdf2" stroke-linejoin="round"/><text class="st3"><tspan style="white-space:pre" y="13.8" x="8">int options</tspan></text></g><g ed:height="20.5" id="126" ed:layout="rightmap" ed:parentid="124" transform="matrix(1,0,0,1,639.69,180.5)" ed:width="190.203125"><path d="M0,20.5L190.2,20.5" fill="none" stroke="#70bdf2" stroke-linejoin="round"/><text class="st3"><tspan style="white-space:pre" y="13.8" x="8">BEV_OPT_CLOSE_ON_FREE</tspan></text></g><g ed:height="20.5" id="128" ed:layout="rightmap" ed:parentid="104" transform="matrix(1,0,0,1,527.14,207.5)" ed:width="184.125"><path d="M0,20.5L184.1,20.5" fill="none" stroke="#70bdf2" stroke-linejoin="round"/><text class="st3"><tspan style="white-space:pre" y="13.8" x="8">void (*free context)(void *)</tspan></text></g></svg>